<svg width="38" height="39" viewBox="0 0 38 39" fill="none" xmlns="http://www.w3.org/2000/svg">
<path d="M16.1454 4.05256H8.46648C6.20301 4.05256 5.07125 4.05256 4.20673 4.50145C3.44625 4.8963 2.82797 5.52634 2.44051 6.30126C2 7.18226 2 8.33552 2 10.642V30.4105C2 32.717 2 33.8704 2.44051 34.7513C2.82797 35.5262 3.44625 36.1563 4.20673 36.5511C5.07125 37 6.20301 37 8.46648 37H27.8659C30.1294 37 31.2612 37 32.1257 36.5511C32.8861 36.1563 33.5045 35.5262 33.8919 34.7513C34.3324 33.8704 34.3324 32.717 34.3324 30.4105V21.5559M25.2389 7.14138L30.9545 12.9657M15.6659 16.8965L29.1006 3.20626C30.6788 1.59791 33.238 1.59791 34.8162 3.20626C36.3946 4.81461 36.3946 7.42226 34.8162 9.03061L20.9496 23.1608C19.4106 24.7293 18.6411 25.5135 17.7645 26.137C16.9865 26.6907 16.1472 27.1491 15.2644 27.5033C14.2695 27.9024 13.2027 28.1217 11.0691 28.5605L10.0831 28.7631L10.179 28.0791C10.5183 25.6589 10.688 24.4487 11.0739 23.3188C11.4163 22.3161 11.8841 21.3629 12.4657 20.4822C13.1212 19.4897 13.9694 18.6252 15.6659 16.8965Z" stroke="black" stroke-width="4" stroke-linecap="round" stroke-linejoin="round"/>
</svg>
